ExploreSansMonoVariable_Normal Condensed.ufo
<glyph name="exclam" format="2">
  <advance width="450"/>
  <unicode hex="0021"/>
  <outline>
    <contour>
      <point x="177" y="715" type="line"/>
      <point x="277" y="715" type="line"/>
      <point x="264" y="206" type="line"/>
      <point x="186" y="206" type="line"/>
    </contour>
    <contour>
      <point x="225" y="118" type="curve" smooth="yes"/>
      <point x="266" y="118"/>
      <point x="288" y="85"/>
      <point x="288" y="54" type="curve" smooth="yes"/>
      <point x="288" y="21"/>
      <point x="265" y="-8"/>
      <point x="225" y="-8" type="curve" smooth="yes"/>
      <point x="185" y="-8"/>
      <point x="162" y="21"/>
      <point x="162" y="54" type="curve" smooth="yes"/>
      <point x="162" y="85"/>
      <point x="184" y="118"/>
    </contour>
  </outline>
</glyph>
<glyph name="quotedbl" format="2">
  <advance width="450"/>
  <unicode hex="0022"/>
  <outline>
    <contour>
      <point x="121" y="772" type="line"/>
      <point x="217" y="772" type="line"/>
      <point x="206" y="434" type="line"/>
      <point x="132" y="434" type="line"/>
    </contour>
    <contour>
      <point x="383" y="772" type="line"/>
      <point x="479" y="772" type="line"/>
      <point x="468" y="434" type="line"/>
      <point x="394" y="434" type="line"/>
    </contour>
  </outline>
</glyph>
<glyph name="ampersand" format="2">
  <advance width="450"/>
  <unicode hex="0026"/>
  <outline>
    <contour>
      <point x="245" y="716" type="curve" smooth="yes"/>
      <point x="291" y="716"/>
      <point x="308" y="710"/>
      <point x="356" y="686" type="curve"/>
      <point x="330" y="627" type="line"/>
      <point x="295" y="644"/>
      <point x="284" y="652"/>
      <point x="250" y="652" type="curve" smooth="yes"/>
      <point x="198" y="652"/>
      <point x="176" y="626"/>
      <point x="176" y="592" type="curve" smooth="yes"/>
      <point x="176" y="569"/>
      <point x="176" y="549"/>
      <point x="176" y="520" type="curve" smooth="yes"/>
      <point x="176" y="476"/>
      <point x="199" y="430"/>
      <point x="225" y="386" type="curve" smooth="yes"/>
      <point x="455" y="0" type="line"/>
      <point x="362" y="0" type="line"/>
      <point x="166" y="344" type="line" smooth="yes"/>
      <point x="124" y="418"/>
      <point x="96" y="468"/>
      <point x="96" y="516" type="curve" smooth="yes"/>
      <point x="96" y="548"/>
      <point x="96" y="568"/>
      <point x="96" y="592" type="curve" smooth="yes"/>
      <point x="96" y="647"/>
      <point x="129" y="716"/>
    </contour>
    <contour>
      <point x="158" y="447" type="line"/>
      <point x="185" y="385" type="line"/>
      <point x="171" y="385" type="line" smooth="yes"/>
      <point x="114" y="385"/>
      <point x="94" y="350"/>
      <point x="94" y="291" type="curve" smooth="yes"/>
      <point x="94" y="224"/>
      <point x="94" y="222"/>
      <point x="94" y="137" type="curve" smooth="yes"/>
      <point x="94" y="87"/>
      <point x="104" y="53"/>
      <point x="162" y="53" type="curve" smooth="yes"/>
      <point x="226" y="53"/>
      <point x="252" y="76"/>
      <point x="264" y="175" type="curve" smooth="yes"/>
      <point x="293" y="416" type="line"/>
      <point x="427" y="405" type="line"/>
      <point x="427" y="342" type="line"/>
      <point x="348" y="348" type="line"/>
      <point x="326" y="153" type="line" smooth="yes"/>
      <point x="314" y="46"/>
      <point x="264" y="-8"/>
      <point x="162" y="-8" type="curve" smooth="yes"/>
      <point x="59" y="-8"/>
      <point x="21" y="46"/>
      <point x="21" y="137" type="curve" smooth="yes"/>
      <point x="21" y="222"/>
      <point x="21" y="224"/>
      <point x="21" y="291" type="curve" smooth="yes"/>
      <point x="21" y="380"/>
      <point x="71" y="447"/>
      <point x="148" y="447" type="curve" smooth="yes"/>
    </contour>
  </outline>
</glyph>
<glyph name="parenleft" format="2">
  <advance width="450"/>
  <unicode hex="0028"/>
  <outline>
    <contour>
      <point x="289" y="800" type="curve"/>
      <point x="379" y="800" type="line"/>
      <point x="290" y="700"/>
      <point x="217" y="564"/>
      <point x="217" y="368" type="curve" smooth="yes"/>
      <point x="217" y="197"/>
      <point x="290" y="33"/>
      <point x="378" y="-64" type="curve"/>
      <point x="283" y="-64" type="line"/>
      <point x="203" y="25"/>
      <point x="139" y="197"/>
      <point x="139" y="368" type="curve" smooth="yes"/>
      <point x="139" y="563"/>
      <point x="204" y="707"/>
    </contour>
  </outline>
</glyph>
<glyph name="parenright" format="2">
  <advance width="450"/>
  <unicode hex="0029"/>
  <outline>
    <contour>
      <point x="71" y="800" type="curve"/>
      <point x="161" y="800" type="line"/>
      <point x="246" y="707"/>
      <point x="311" y="563"/>
      <point x="311" y="368" type="curve" smooth="yes"/>
      <point x="311" y="197"/>
      <point x="247" y="25"/>
      <point x="167" y="-64" type="curve"/>
      <point x="72" y="-64" type="line"/>
      <point x="160" y="33"/>
      <point x="233" y="197"/>
      <point x="233" y="368" type="curve" smooth="yes"/>
      <point x="233" y="564"/>
      <point x="160" y="700"/>
    </contour>
  </outline>
</glyph>
<glyph name="asterisk" format="2">
  <advance width="450"/>
  <unicode hex="002A"/>
  <outline>
    <contour>
      <point x="185" y="806" type="line"/>
      <point x="263" y="806" type="line"/>
      <point x="263" y="684" type="line"/>
      <point x="257" y="637" type="line"/>
      <point x="300" y="659" type="line"/>
      <point x="394" y="696" type="line"/>
      <point x="420" y="628" type="line"/>
      <point x="324" y="591" type="line"/>
      <point x="270" y="585" type="line"/>
      <point x="310" y="545" type="line"/>
      <point x="364" y="437" type="line"/>
      <point x="303" y="406" type="line"/>
      <point x="253" y="504" type="line"/>
      <point x="225" y="549" type="line"/>
      <point x="196" y="504" type="line"/>
      <point x="145" y="406" type="line"/>
      <point x="84" y="437" type="line"/>
      <point x="137" y="545" type="line"/>
      <point x="178" y="585" type="line"/>
      <point x="124" y="591" type="line"/>
      <point x="29" y="628" type="line"/>
      <point x="54" y="696" type="line"/>
      <point x="149" y="659" type="line"/>
      <point x="191" y="637" type="line"/>
      <point x="185" y="684" type="line"/>
    </contour>
  </outline>
</glyph>
<glyph name="comma" format="2">
  <advance width="450"/>
  <unicode hex="002C"/>
  <outline>
    <contour>
      <point x="186" y="74" type="line"/>
      <point x="186" y="88" type="line"/>
      <point x="63" y="105" type="line"/>
      <point x="63" y="167" type="line"/>
      <point x="256" y="141" type="line"/>
      <point x="256" y="74" type="line"/>
      <point x="186" y="-143" type="line"/>
      <point x="114" y="-143" type="line"/>
    </contour>
  </outline>
</glyph>
<glyph name="hyphen" format="2">
  <advance width="450"/>
  <unicode hex="002D"/>
  <outline>
    <contour>
      <point x="43" y="299" type="line"/>
      <point x="407" y="299" type="line"/>
      <point x="407" y="235" type="line"/>
      <point x="43" y="235" type="line"/>
    </contour>
  </outline>
</glyph>
<glyph name="period" format="2">
  <advance width="450"/>
  <unicode hex="002E"/>
  <outline>
    <contour>
      <point x="224" y="132" type="curve" smooth="yes"/>
      <point x="266" y="132"/>
      <point x="293" y="99"/>
      <point x="293" y="62" type="curve" smooth="yes"/>
      <point x="293" y="26"/>
      <point x="266" y="-8"/>
      <point x="224" y="-8" type="curve" smooth="yes"/>
      <point x="180" y="-8"/>
      <point x="156" y="28"/>
      <point x="156" y="62" type="curve" smooth="yes"/>
      <point x="156" y="97"/>
      <point x="180" y="132"/>
    </contour>
  </outline>
</glyph>
<glyph name="zero" format="2">
  <advance width="450"/>
  <unicode hex="0030"/>
  <outline>
    <contour>
      <point x="224" y="651" type="curve" smooth="yes"/>
      <point x="156" y="651"/>
      <point x="124" y="614"/>
      <point x="124" y="535" type="curve" smooth="yes"/>
      <point x="124" y="358"/>
      <point x="124" y="341"/>
      <point x="124" y="173" type="curve" smooth="yes"/>
      <point x="124" y="102"/>
      <point x="157" y="57"/>
      <point x="224" y="57" type="curve" smooth="yes"/>
      <point x="294" y="57"/>
      <point x="326" y="101"/>
      <point x="326" y="173" type="curve" smooth="yes"/>
      <point x="326" y="341"/>
      <point x="326" y="358"/>
      <point x="326" y="535" type="curve" smooth="yes"/>
      <point x="326" y="614"/>
      <point x="294" y="651"/>
    </contour>
    <contour>
      <point x="224" y="716" type="curve" smooth="yes"/>
      <point x="353" y="716"/>
      <point x="406" y="637"/>
      <point x="406" y="535" type="curve" smooth="yes"/>
      <point x="406" y="358"/>
      <point x="406" y="342"/>
      <point x="406" y="173" type="curve" smooth="yes"/>
      <point x="406" y="57"/>
      <point x="347" y="-7"/>
      <point x="224" y="-7" type="curve" smooth="yes"/>
      <point x="104" y="-7"/>
      <point x="44" y="60"/>
      <point x="44" y="173" type="curve" smooth="yes"/>
      <point x="44" y="342"/>
      <point x="44" y="358"/>
      <point x="44" y="535" type="curve" smooth="yes"/>
      <point x="44" y="637"/>
      <point x="96" y="716"/>
    </contour>
    <contour>
      <point x="274" y="360" type="curve" smooth="yes"/>
      <point x="274" y="388"/>
      <point x="252" y="410"/>
      <point x="224" y="410" type="curve" smooth="yes"/>
      <point x="196" y="410"/>
      <point x="174" y="388"/>
      <point x="174" y="360" type="curve" smooth="yes"/>
      <point x="174" y="332"/>
      <point x="196" y="310"/>
      <point x="224" y="310" type="curve" smooth="yes"/>
      <point x="252" y="310"/>
      <point x="274" y="332"/>
    </contour>
  </outline>
</glyph>
<glyph name="one" format="2">
  <advance width="450"/>
  <unicode hex="0031"/>
  <outline>
    <contour>
      <point x="205" y="708" type="line"/>
      <point x="277" y="708" type="line"/>
      <point x="277" y="69" type="line"/>
      <point x="403" y="69" type="line"/>
      <point x="403" y="0" type="line"/>
      <point x="57" y="0" type="line"/>
      <point x="57" y="69" type="line"/>
      <point x="197" y="69" type="line"/>
      <point x="197" y="626" type="line"/>
      <point x="38" y="556" type="line"/>
      <point x="38" y="639" type="line"/>
    </contour>
  </outline>
</glyph>
<glyph name="two" format="2">
  <advance width="450"/>
  <unicode hex="0032"/>
  <outline>
    <contour>
      <point x="47" y="658" type="line"/>
      <point x="97" y="700"/>
      <point x="146" y="716"/>
      <point x="207" y="716" type="curve" smooth="yes"/>
      <point x="323" y="716"/>
      <point x="411" y="654"/>
      <point x="411" y="530" type="curve" smooth="yes"/>
      <point x="411" y="529"/>
      <point x="411" y="516"/>
      <point x="411" y="515" type="curve" smooth="yes"/>
      <point x="411" y="439"/>
      <point x="385" y="379"/>
      <point x="307" y="284" type="curve" smooth="yes"/>
      <point x="240" y="203"/>
      <point x="133" y="73"/>
      <point x="133" y="72" type="curve"/>
      <point x="414" y="71" type="line"/>
      <point x="414" y="-1" type="line"/>
      <point x="42" y="0" type="line"/>
      <point x="42" y="71" type="line"/>
      <point x="255" y="332" type="line" smooth="yes"/>
      <point x="320" y="412"/>
      <point x="331" y="445"/>
      <point x="331" y="515" type="curve" smooth="yes"/>
      <point x="331" y="516"/>
      <point x="331" y="529"/>
      <point x="331" y="530" type="curve" smooth="yes"/>
      <point x="331" y="606"/>
      <point x="286" y="652"/>
      <point x="206" y="652" type="curve" smooth="yes"/>
      <point x="145" y="652"/>
      <point x="111" y="633"/>
      <point x="78" y="607" type="curve"/>
    </contour>
  </outline>
</glyph>
<glyph name="three" format="2">
  <advance width="450"/>
  <unicode hex="0033"/>
  <outline>
    <contour>
      <point x="62" y="708" type="line"/>
      <point x="383" y="708" type="line"/>
      <point x="383" y="645" type="line"/>
      <point x="240" y="430" type="line"/>
      <point x="346" y="430"/>
      <point x="414" y="369"/>
      <point x="414" y="264" type="curve" smooth="yes"/>
      <point x="414" y="263"/>
      <point x="414" y="204"/>
      <point x="414" y="179" type="curve" smooth="yes"/>
      <point x="414" y="86"/>
      <point x="362" y="-8"/>
      <point x="206" y="-8" type="curve" smooth="yes"/>
      <point x="140" y="-8"/>
      <point x="88" y="8"/>
      <point x="31" y="60" type="curve"/>
      <point x="70" y="112" type="line"/>
      <point x="105" y="82"/>
      <point x="138" y="56"/>
      <point x="207" y="56" type="curve" smooth="yes"/>
      <point x="303" y="56"/>
      <point x="334" y="110"/>
      <point x="334" y="179" type="curve" smooth="yes"/>
      <point x="334" y="224"/>
      <point x="334" y="233"/>
      <point x="334" y="265" type="curve" smooth="yes"/>
      <point x="334" y="328"/>
      <point x="304" y="366"/>
      <point x="228" y="366" type="curve" smooth="yes"/>
      <point x="170" y="366" type="line"/>
      <point x="164" y="429" type="line"/>
      <point x="297" y="644" type="line"/>
      <point x="62" y="644" type="line"/>
    </contour>
  </outline>
</glyph>
<glyph name="four" format="2">
  <advance width="450"/>
  <unicode hex="0034"/>
  <outline>
    <contour>
      <point x="187" y="708" type="line"/>
      <point x="270" y="708" type="line"/>
      <point x="117" y="234" type="line"/>
      <point x="251" y="234" type="line"/>
      <point x="251" y="418" type="line"/>
      <point x="331" y="418" type="line"/>
      <point x="331" y="234" type="line"/>
      <point x="424" y="234" type="line"/>
      <point x="424" y="164" type="line"/>
      <point x="331" y="164" type="line"/>
      <point x="331" y="0" type="line"/>
      <point x="251" y="0" type="line"/>
      <point x="251" y="164" type="line"/>
      <point x="37" y="164" type="line"/>
      <point x="37" y="234" type="line"/>
    </contour>
  </outline>
</glyph>
<glyph name="five" format="2">
  <advance width="450"/>
  <unicode hex="0035"/>
  <outline>
    <contour>
      <point x="71" y="708" type="line"/>
      <point x="369" y="708" type="line"/>
      <point x="369" y="637" type="line"/>
      <point x="138" y="638" type="line"/>
      <point x="132" y="409" type="line"/>
      <point x="146" y="428"/>
      <point x="167" y="454"/>
      <point x="237" y="454" type="curve" smooth="yes"/>
      <point x="349" y="454"/>
      <point x="407" y="379"/>
      <point x="407" y="264" type="curve" smooth="yes"/>
      <point x="407" y="262"/>
      <point x="407" y="180"/>
      <point x="407" y="179" type="curve" smooth="yes"/>
      <point x="407" y="73"/>
      <point x="326" y="-8"/>
      <point x="214" y="-8" type="curve" smooth="yes"/>
      <point x="121" y="-8"/>
      <point x="87" y="15"/>
      <point x="46" y="53" type="curve"/>
      <point x="87" y="105" type="line"/>
      <point x="119" y="71"/>
      <point x="155" y="56"/>
      <point x="214" y="56" type="curve" smooth="yes"/>
      <point x="291" y="56"/>
      <point x="327" y="97"/>
      <point x="327" y="179" type="curve" smooth="yes"/>
      <point x="327" y="181"/>
      <point x="327" y="262"/>
      <point x="327" y="264" type="curve" smooth="yes"/>
      <point x="327" y="345"/>
      <point x="293" y="390"/>
      <point x="216" y="390" type="curve" smooth="yes"/>
      <point x="168" y="390"/>
      <point x="136" y="370"/>
      <point x="109" y="335" type="curve"/>
      <point x="63" y="335" type="line"/>
    </contour>
  </outline>
</glyph>
<glyph name="six" format="2">
  <advance width="450"/>
  <unicode hex="0036"/>
  <outline>
    <contour>
      <point x="323" y="716" type="curve"/>
      <point x="342" y="652" type="line"/>
      <point x="209" y="608"/>
      <point x="123" y="541"/>
      <point x="123" y="362" type="curve"/>
      <point x="132" y="404"/>
      <point x="170" y="441"/>
      <point x="243" y="441" type="curve" smooth="yes"/>
      <point x="341" y="441"/>
      <point x="405" y="379"/>
      <point x="406" y="272" type="curve" smooth="yes"/>
      <point x="406" y="235"/>
      <point x="406" y="215"/>
      <point x="406" y="171" type="curve" smooth="yes"/>
      <point x="406" y="81"/>
      <point x="355" y="-8"/>
      <point x="227" y="-8" type="curve" smooth="yes"/>
      <point x="87" y="-8"/>
      <point x="44" y="93"/>
      <point x="44" y="191" type="curve" smooth="yes"/>
      <point x="44" y="204"/>
      <point x="44" y="315"/>
      <point x="44" y="318" type="curve" smooth="yes"/>
      <point x="44" y="543"/>
      <point x="152" y="660"/>
    </contour>
    <contour>
      <point x="227" y="375" type="curve" smooth="yes"/>
      <point x="173" y="375"/>
      <point x="142" y="355"/>
      <point x="124" y="325" type="curve"/>
      <point x="123" y="312"/>
      <point x="123" y="223"/>
      <point x="123" y="191" type="curve" smooth="yes"/>
      <point x="123" y="110"/>
      <point x="141" y="56"/>
      <point x="227" y="56" type="curve" smooth="yes"/>
      <point x="297" y="56"/>
      <point x="326" y="98"/>
      <point x="326" y="171" type="curve" smooth="yes"/>
      <point x="326" y="216"/>
      <point x="326" y="235"/>
      <point x="326" y="272" type="curve" smooth="yes"/>
      <point x="326" y="340"/>
      <point x="292" y="375"/>
    </contour>
  </outline>
</glyph>
<glyph name="seven" format="2">
  <advance width="450"/>
  <unicode hex="0037"/>
  <outline>
    <contour>
      <point x="53" y="710" type="line"/>
      <point x="394" y="710" type="line"/>
      <point x="394" y="650" type="line"/>
      <point x="190" y="2" type="line"/>
      <point x="112" y="2" type="line"/>
      <point x="321" y="646" type="line"/>
      <point x="53" y="646" type="line"/>
    </contour>
  </outline>
</glyph>
<glyph name="eight" format="2">
  <advance width="450"/>
  <unicode hex="0038"/>
  <outline>
    <contour>
      <point x="225" y="716" type="curve" smooth="yes"/>
      <point x="334" y="716"/>
      <point x="397" y="647"/>
      <point x="397" y="566" type="curve" smooth="yes"/>
      <point x="397" y="529"/>
      <point x="397" y="527"/>
      <point x="397" y="493" type="curve" smooth="yes"/>
      <point x="397" y="429"/>
      <point x="357" y="381"/>
      <point x="304" y="370" type="curve"/>
      <point x="368" y="365"/>
      <point x="410" y="306"/>
      <point x="410" y="221" type="curve" smooth="yes"/>
      <point x="410" y="220"/>
      <point x="410" y="183"/>
      <point x="410" y="152" type="curve" smooth="yes"/>
      <point x="410" y="56"/>
      <point x="349" y="-7"/>
      <point x="225" y="-7" type="curve" smooth="yes"/>
      <point x="100" y="-7"/>
      <point x="41" y="57"/>
      <point x="41" y="152" type="curve" smooth="yes"/>
      <point x="41" y="184"/>
      <point x="41" y="220"/>
      <point x="41" y="222" type="curve" smooth="yes"/>
      <point x="41" y="309"/>
      <point x="79" y="355"/>
      <point x="146" y="370" type="curve"/>
      <point x="87" y="382"/>
      <point x="55" y="420"/>
      <point x="55" y="493" type="curve" smooth="yes"/>
      <point x="55" y="526"/>
      <point x="55" y="529"/>
      <point x="55" y="566" type="curve" smooth="yes"/>
      <point x="55" y="649"/>
      <point x="116" y="716"/>
    </contour>
    <contour>
      <point x="225" y="650" type="curve" smooth="yes"/>
      <point x="152" y="650"/>
      <point x="135" y="609"/>
      <point x="135" y="566" type="curve" smooth="yes"/>
      <point x="135" y="528"/>
      <point x="135" y="526"/>
      <point x="135" y="493" type="curve" smooth="yes"/>
      <point x="135" y="450"/>
      <point x="151" y="402"/>
      <point x="225" y="402" type="curve" smooth="yes"/>
      <point x="300" y="402"/>
      <point x="317" y="450"/>
      <point x="317" y="492" type="curve" smooth="yes"/>
      <point x="317" y="526"/>
      <point x="317" y="528"/>
      <point x="317" y="566" type="curve" smooth="yes"/>
      <point x="317" y="609"/>
      <point x="298" y="650"/>
    </contour>
    <contour>
      <point x="225" y="336" type="curve" smooth="yes"/>
      <point x="145" y="336"/>
      <point x="121" y="286"/>
      <point x="121" y="222" type="curve" smooth="yes"/>
      <point x="121" y="220"/>
      <point x="121" y="184"/>
      <point x="121" y="152" type="curve" smooth="yes"/>
      <point x="121" y="91"/>
      <point x="154" y="57"/>
      <point x="225" y="57" type="curve" smooth="yes"/>
      <point x="297" y="57"/>
      <point x="330" y="92"/>
      <point x="330" y="152" type="curve" smooth="yes"/>
      <point x="330" y="183"/>
      <point x="330" y="220"/>
      <point x="330" y="222" type="curve" smooth="yes"/>
      <point x="330" y="288"/>
      <point x="306" y="336"/>
    </contour>
  </outline>
</glyph>
<glyph name="nine" format="2">
  <advance width="450"/>
  <unicode hex="0039"/>
  <outline>
    <contour>
      <point x="100" y="53" type="line"/>
      <point x="223" y="96"/>
      <point x="326" y="168"/>
      <point x="326" y="332" type="curve"/>
      <point x="291" y="275"/>
      <point x="255" y="259"/>
      <point x="191" y="259" type="curve" smooth="yes"/>
      <point x="96" y="259"/>
      <point x="44" y="332"/>
      <point x="44" y="421" type="curve" smooth="yes"/>
      <point x="44" y="468"/>
      <point x="44" y="484"/>
      <point x="44" y="531" type="curve" smooth="yes"/>
      <point x="44" y="634"/>
      <point x="95" y="716"/>
      <point x="227" y="716" type="curve" smooth="yes"/>
      <point x="357" y="716"/>
      <point x="406" y="634"/>
      <point x="406" y="531" type="curve" smooth="yes"/>
      <point x="406" y="446"/>
      <point x="406" y="382"/>
      <point x="406" y="379" type="curve" smooth="yes"/>
      <point x="406" y="138"/>
      <point x="276" y="37"/>
      <point x="121" y="-8" type="curve"/>
    </contour>
    <contour>
      <point x="225" y="652" type="curve" smooth="yes"/>
      <point x="153" y="652"/>
      <point x="124" y="611"/>
      <point x="124" y="531" type="curve" smooth="yes"/>
      <point x="124" y="530"/>
      <point x="124" y="468"/>
      <point x="124" y="421" type="curve" smooth="yes"/>
      <point x="124" y="365"/>
      <point x="155" y="325"/>
      <point x="214" y="325" type="curve" smooth="yes"/>
      <point x="248" y="325"/>
      <point x="291" y="330"/>
      <point x="326" y="378" type="curve"/>
      <point x="326" y="531" type="line"/>
      <point x="326" y="611"/>
      <point x="294" y="652"/>
    </contour>
  </outline>
</glyph>
<glyph name="colon" format="2">
  <advance width="450"/>
  <unicode hex="003A"/>
  <outline>
    <contour>
      <point x="225" y="528" type="curve" smooth="yes"/>
      <point x="262" y="528"/>
      <point x="289" y="501"/>
      <point x="289" y="465" type="curve" smooth="yes"/>
      <point x="289" y="429"/>
      <point x="262" y="402"/>
      <point x="225" y="402" type="curve" smooth="yes"/>
      <point x="189" y="402"/>
      <point x="163" y="429"/>
      <point x="163" y="465" type="curve" smooth="yes"/>
      <point x="163" y="501"/>
      <point x="189" y="528"/>
    </contour>
    <contour>
      <point x="225" y="118" type="curve" smooth="yes"/>
      <point x="261" y="118"/>
      <point x="289" y="90"/>
      <point x="289" y="54" type="curve" smooth="yes"/>
      <point x="289" y="19"/>
      <point x="262" y="-8"/>
      <point x="225" y="-8" type="curve" smooth="yes"/>
      <point x="188" y="-8"/>
      <point x="163" y="17"/>
      <point x="163" y="54" type="curve" smooth="yes"/>
      <point x="163" y="91"/>
      <point x="189" y="118"/>
    </contour>
  </outline>
</glyph>
<glyph name="A" format="2">
  <advance width="450"/>
  <unicode hex="0041"/>
  <anchor x="236" y="881" name="AccentCenter"/>
  <outline>
    <contour>
      <point x="190" y="708" type="line"/>
      <point x="289" y="708" type="line"/>
      <point x="438" y="0" type="line"/>
      <point x="368" y="0" type="line"/>
      <point x="331" y="182" type="line"/>
      <point x="131" y="182" type="line"/>
      <point x="89" y="0" type="line"/>
      <point x="12" y="0" type="line"/>
    </contour>
    <contour>
      <point x="232" y="641" type="line"/>
      <point x="145" y="246" type="line"/>
      <point x="318" y="246" type="line"/>
      <point x="244" y="641" type="line"/>
    </contour>
  </outline>
</glyph>
<glyph name="B" format="2">
  <advance width="450"/>
  <unicode hex="0042"/>
  <outline>
    <contour>
      <point x="64" y="708" type="line"/>
      <point x="212" y="708" type="line" smooth="yes"/>
      <point x="317" y="708"/>
      <point x="378" y="641"/>
      <point x="378" y="553" type="curve" smooth="yes"/>
      <point x="378" y="533"/>
      <point x="378" y="531"/>
      <point x="378" y="509" type="curve" smooth="yes"/>
      <point x="378" y="459"/>
      <point x="362" y="408"/>
      <point x="294" y="378" type="curve"/>
      <point x="376" y="357"/>
      <point x="410" y="290"/>
      <point x="410" y="227" type="curve" smooth="yes"/>
      <point x="410" y="200"/>
      <point x="410" y="211"/>
      <point x="410" y="179" type="curve" smooth="yes"/>
      <point x="410" y="86"/>
      <point x="347" y="0"/>
      <point x="218" y="0" type="curve" smooth="yes"/>
      <point x="64" y="0" type="line"/>
    </contour>
    <contour>
      <point x="140" y="644" type="line"/>
      <point x="140" y="412" type="line"/>
      <point x="203" y="412" type="line" smooth="yes"/>
      <point x="284" y="412"/>
      <point x="300" y="449"/>
      <point x="300" y="509" type="curve" smooth="yes"/>
      <point x="300" y="531"/>
      <point x="300" y="532"/>
      <point x="300" y="553" type="curve" smooth="yes"/>
      <point x="300" y="607"/>
      <point x="273" y="644"/>
      <point x="210" y="644" type="curve" smooth="yes"/>
    </contour>
    <contour>
      <point x="140" y="344" type="line"/>
      <point x="140" y="64" type="line"/>
      <point x="218" y="64" type="line" smooth="yes"/>
      <point x="307" y="64"/>
      <point x="330" y="126"/>
      <point x="330" y="179" type="curve" smooth="yes"/>
      <point x="330" y="211"/>
      <point x="330" y="200"/>
      <point x="330" y="227" type="curve" smooth="yes"/>
      <point x="330" y="294"/>
      <point x="292" y="344"/>
      <point x="212" y="344" type="curve" smooth="yes"/>
    </contour>
  </outline>
</glyph>
<glyph name="C" format="2">
  <advance width="450"/>
  <unicode hex="0043"/>
  <outline>
    <contour>
      <point x="240" y="716" type="curve" smooth="yes"/>
      <point x="287" y="716"/>
      <point x="340" y="711"/>
      <point x="398" y="667" type="curve"/>
      <point x="365" y="614" type="line"/>
      <point x="323" y="644"/>
      <point x="292" y="653"/>
      <point x="241" y="653" type="curve" smooth="yes"/>
      <point x="151" y="653"/>
      <point x="124" y="602"/>
      <point x="124" y="511" type="curve" smooth="yes"/>
      <point x="124" y="510"/>
      <point x="124" y="234"/>
      <point x="124" y="190" type="curve" smooth="yes"/>
      <point x="124" y="115"/>
      <point x="145" y="56"/>
      <point x="244" y="56" type="curve" smooth="yes"/>
      <point x="291" y="56"/>
      <point x="325" y="65"/>
      <point x="375" y="97" type="curve"/>
      <point x="405" y="40" type="line"/>
      <point x="360" y="10"/>
      <point x="311" y="-8"/>
      <point x="243" y="-8" type="curve" smooth="yes"/>
      <point x="105" y="-8"/>
      <point x="44" y="69"/>
      <point x="44" y="190" type="curve" smooth="yes"/>
      <point x="44" y="234"/>
      <point x="44" y="510"/>
      <point x="44" y="511" type="curve" smooth="yes"/>
      <point x="44" y="620"/>
      <point x="101" y="716"/>
    </contour>
  </outline>
</glyph>
<glyph name="D" format="2">
  <advance width="450"/>
  <unicode hex="0044"/>
  <outline>
    <contour>
      <point x="136" y="642" type="line"/>
      <point x="136" y="64" type="line"/>
      <point x="198" y="64" type="line" smooth="yes"/>
      <point x="299" y="64"/>
      <point x="331" y="130"/>
      <point x="331" y="213" type="curve" smooth="yes"/>
      <point x="331" y="328"/>
      <point x="331" y="407"/>
      <point x="331" y="500" type="curve" smooth="yes"/>
      <point x="331" y="593"/>
      <point x="299" y="642"/>
      <point x="198" y="642" type="curve" smooth="yes"/>
    </contour>
    <contour>
      <point x="56" y="708" type="line"/>
      <point x="198" y="708" type="line" smooth="yes"/>
      <point x="350" y="708"/>
      <point x="410" y="632"/>
      <point x="410" y="500" type="curve" smooth="yes"/>
      <point x="410" y="407"/>
      <point x="410" y="328"/>
      <point x="410" y="213" type="curve" smooth="yes"/>
      <point x="410" y="91"/>
      <point x="349" y="0"/>
      <point x="198" y="0" type="curve" smooth="yes"/>
      <point x="56" y="0" type="line"/>
    </contour>
  </outline>
</glyph>
<glyph name="E" format="2">
  <advance width="450"/>
  <unicode hex="0045"/>
  <anchor x="253" y="880" name="AccentCenter"/>
  <outline>
    <contour>
      <point x="60" y="708" type="line"/>
      <point x="401" y="708" type="line"/>
      <point x="401" y="644" type="line"/>
      <point x="140" y="644" type="line"/>
      <point x="140" y="402" type="line"/>
      <point x="338" y="402" type="line"/>
      <point x="338" y="332" type="line"/>
      <point x="140" y="332" type="line"/>
      <point x="140" y="64" type="line"/>
      <point x="401" y="64" type="line"/>
      <point x="401" y="0" type="line"/>
      <point x="60" y="0" type="line"/>
    </contour>
  </outline>
</glyph>
<glyph name="F" format="2">
  <advance width="450"/>
  <unicode hex="0046"/>
  <outline>
    <contour>
      <point x="60" y="708" type="line"/>
      <point x="413" y="708" type="line"/>
      <point x="413" y="644" type="line"/>
      <point x="142" y="644" type="line"/>
      <point x="142" y="406" type="line"/>
      <point x="363" y="406" type="line"/>
      <point x="363" y="336" type="line"/>
      <point x="142" y="336" type="line"/>
      <point x="142" y="0" type="line"/>
      <point x="60" y="0" type="line"/>
    </contour>
  </outline>
</glyph>
<glyph name="G" format="2">
  <advance width="450"/>
  <unicode hex="0047"/>
  <outline>
    <contour>
      <point x="249" y="716" type="curve" smooth="yes"/>
      <point x="315" y="716"/>
      <point x="356" y="703"/>
      <point x="410" y="665" type="curve"/>
      <point x="381" y="608" type="line"/>
      <point x="338" y="635"/>
      <point x="308" y="653"/>
      <point x="251" y="653" type="curve" smooth="yes"/>
      <point x="142" y="653"/>
      <point x="126" y="579"/>
      <point x="126" y="490" type="curve" smooth="yes"/>
      <point x="126" y="398"/>
      <point x="126" y="304"/>
      <point x="126" y="185" type="curve" smooth="yes"/>
      <point x="126" y="99"/>
      <point x="152" y="53"/>
      <point x="251" y="53" type="curve" smooth="yes"/>
      <point x="293" y="53"/>
      <point x="315" y="60"/>
      <point x="332" y="66" type="curve"/>
      <point x="332" y="326" type="line"/>
      <point x="212" y="326" type="line"/>
      <point x="212" y="392" type="line"/>
      <point x="412" y="392" type="line"/>
      <point x="412" y="26" type="line"/>
      <point x="364" y="8"/>
      <point x="322" y="-8"/>
      <point x="251" y="-8" type="curve" smooth="yes"/>
      <point x="105" y="-8"/>
      <point x="48" y="76"/>
      <point x="48" y="208" type="curve" smooth="yes"/>
      <point x="48" y="304"/>
      <point x="48" y="397"/>
      <point x="48" y="490" type="curve" smooth="yes"/>
      <point x="48" y="605"/>
      <point x="87" y="716"/>
    </contour>
  </outline>
</glyph>
<glyph name="H" format="2">
  <advance width="450"/>
  <unicode hex="0048"/>
  <outline>
    <contour>
      <point x="60" y="708" type="line"/>
      <point x="140" y="708" type="line"/>
      <point x="140" y="414" type="line"/>
      <point x="310" y="414" type="line"/>
      <point x="310" y="708" type="line"/>
      <point x="390" y="708" type="line"/>
      <point x="390" y="0" type="line"/>
      <point x="310" y="0" type="line"/>
      <point x="310" y="344" type="line"/>
      <point x="140" y="344" type="line"/>
      <point x="140" y="0" type="line"/>
      <point x="60" y="0" type="line"/>
    </contour>
  </outline>
</glyph>
<glyph name="I" format="2">
  <advance width="450"/>
  <unicode hex="0049"/>
  <anchor x="225" y="876" name="AccentCenter"/>
  <outline>
    <contour>
      <point x="40" y="708" type="line"/>
      <point x="410" y="708" type="line"/>
      <point x="410" y="644" type="line"/>
      <point x="265" y="644" type="line"/>
      <point x="265" y="64" type="line"/>
      <point x="410" y="64" type="line"/>
      <point x="410" y="0" type="line"/>
      <point x="40" y="0" type="line"/>
      <point x="40" y="64" type="line"/>
      <point x="185" y="64" type="line"/>
      <point x="185" y="644" type="line"/>
      <point x="40" y="644" type="line"/>
    </contour>
  </outline>
</glyph>
<glyph name="J" format="2">
  <advance width="450"/>
  <unicode hex="004A"/>
  <outline>
    <contour>
      <point x="88" y="708" type="line"/>
      <point x="394" y="708" type="line"/>
      <point x="394" y="183" type="line" smooth="yes"/>
      <point x="394" y="61"/>
      <point x="324" y="-8"/>
      <point x="196" y="-8" type="curve" smooth="yes"/>
      <point x="116" y="-8"/>
      <point x="74" y="23"/>
      <point x="21" y="65" type="curve"/>
      <point x="60" y="123" type="line"/>
      <point x="107" y="82"/>
      <point x="137" y="56"/>
      <point x="198" y="56" type="curve" smooth="yes"/>
      <point x="280" y="56"/>
      <point x="314" y="101"/>
      <point x="314" y="180" type="curve" smooth="yes"/>
      <point x="314" y="644" type="line"/>
      <point x="88" y="644" type="line"/>
    </contour>
  </outline>
</glyph>
<glyph name="K" format="2">
  <advance width="450"/>
  <unicode hex="004B"/>
  <outline>
    <contour>
      <point x="60" y="708" type="line"/>
      <point x="140" y="708" type="line"/>
      <point x="140" y="397" type="line"/>
      <point x="178" y="397" type="line"/>
      <point x="343" y="708" type="line"/>
      <point x="429" y="708" type="line"/>
      <point x="239" y="359" type="line"/>
      <point x="430" y="0" type="line"/>
      <point x="340" y="0" type="line"/>
      <point x="178" y="322" type="line"/>
      <point x="140" y="322" type="line"/>
      <point x="140" y="0" type="line"/>
      <point x="60" y="0" type="line"/>
    </contour>
  </outline>
</glyph>
<glyph name="L" format="2">
  <advance width="450"/>
  <unicode hex="004C"/>
  <outline>
    <contour>
      <point x="60" y="708" type="line"/>
      <point x="140" y="708" type="line"/>
      <point x="140" y="64" type="line"/>
      <point x="411" y="64" type="line"/>
      <point x="411" y="0" type="line"/>
      <point x="60" y="0" type="line"/>
    </contour>
  </outline>
</glyph>
<glyph name="M" format="2">
  <advance width="450"/>
  <unicode hex="004D"/>
  <outline>
    <contour>
      <point x="48" y="708" type="line"/>
      <point x="122" y="708" type="line"/>
      <point x="228" y="280" type="line"/>
      <point x="341" y="708" type="line"/>
      <point x="402" y="708" type="line"/>
      <point x="402" y="0" type="line"/>
      <point x="322" y="0" type="line"/>
      <point x="322" y="256" type="line"/>
      <point x="347" y="521" type="line"/>
      <point x="268" y="179" type="line"/>
      <point x="190" y="179" type="line"/>
      <point x="103" y="523" type="line"/>
      <point x="128" y="256" type="line"/>
      <point x="128" y="0" type="line"/>
      <point x="48" y="0" type="line"/>
    </contour>
  </outline>
</glyph>
<glyph name="N" format="2">
  <advance width="450"/>
  <unicode hex="004E"/>
  <outline>
    <contour>
      <point x="60" y="708" type="line"/>
      <point x="145" y="708" type="line"/>
      <point x="310" y="203" type="line"/>
      <point x="310" y="708" type="line"/>
      <point x="390" y="708" type="line"/>
      <point x="390" y="0" type="line"/>
      <point x="304" y="0" type="line"/>
      <point x="140" y="509" type="line"/>
      <point x="140" y="0" type="line"/>
      <point x="60" y="0" type="line"/>
    </contour>
  </outline>
</glyph>
<glyph name="O" format="2">
  <advance width="450"/>
  <unicode hex="004F"/>
  <anchor x="300" y="876" name="AccentCenter"/>
  <outline>
    <contour>
      <point x="224" y="716" type="curve" smooth="yes"/>
      <point x="353" y="716"/>
      <point x="406" y="637"/>
      <point x="406" y="535" type="curve" smooth="yes"/>
      <point x="406" y="358"/>
      <point x="406" y="342"/>
      <point x="406" y="173" type="curve" smooth="yes"/>
      <point x="406" y="57"/>
      <point x="347" y="-7"/>
      <point x="224" y="-7" type="curve" smooth="yes"/>
      <point x="104" y="-7"/>
      <point x="44" y="60"/>
      <point x="44" y="173" type="curve" smooth="yes"/>
      <point x="44" y="342"/>
      <point x="44" y="358"/>
      <point x="44" y="535" type="curve" smooth="yes"/>
      <point x="44" y="637"/>
      <point x="96" y="716"/>
    </contour>
    <contour>
      <point x="224" y="651" type="curve" smooth="yes"/>
      <point x="156" y="651"/>
      <point x="124" y="614"/>
      <point x="124" y="535" type="curve" smooth="yes"/>
      <point x="124" y="358"/>
      <point x="124" y="341"/>
      <point x="124" y="173" type="curve" smooth="yes"/>
      <point x="124" y="102"/>
      <point x="157" y="57"/>
      <point x="224" y="57" type="curve" smooth="yes"/>
      <point x="294" y="57"/>
      <point x="326" y="101"/>
      <point x="326" y="173" type="curve" smooth="yes"/>
      <point x="326" y="341"/>
      <point x="326" y="358"/>
      <point x="326" y="535" type="curve" smooth="yes"/>
      <point x="326" y="614"/>
      <point x="294" y="651"/>
    </contour>
  </outline>
</glyph>
<glyph name="P" format="2">
  <advance width="450"/>
  <unicode hex="0050"/>
  <outline>
    <contour>
      <point x="136" y="644" type="line"/>
      <point x="136" y="324" type="line"/>
      <point x="226" y="324" type="line" smooth="yes"/>
      <point x="303" y="324"/>
      <point x="334" y="363"/>
      <point x="334" y="449" type="curve" smooth="yes"/>
      <point x="334" y="450"/>
      <point x="334" y="530"/>
      <point x="334" y="531" type="curve" smooth="yes"/>
      <point x="334" y="605"/>
      <point x="291" y="644"/>
      <point x="233" y="644" type="curve" smooth="yes"/>
    </contour>
    <contour>
      <point x="60" y="708" type="line"/>
      <point x="233" y="708" type="line" smooth="yes"/>
      <point x="356" y="708"/>
      <point x="414" y="628"/>
      <point x="414" y="531" type="curve" smooth="yes"/>
      <point x="414" y="530"/>
      <point x="414" y="449"/>
      <point x="414" y="449" type="curve" smooth="yes"/>
      <point x="414" y="335"/>
      <point x="361" y="260"/>
      <point x="226" y="260" type="curve" smooth="yes"/>
      <point x="136" y="260" type="line"/>
      <point x="136" y="0" type="line"/>
      <point x="60" y="0" type="line"/>
    </contour>
  </outline>
</glyph>
<glyph name="Q" format="2">
  <advance width="450"/>
  <unicode hex="0051"/>
  <outline>
    <contour>
      <point x="225" y="716" type="curve" smooth="yes"/>
      <point x="377" y="716"/>
      <point x="406" y="607"/>
      <point x="406" y="520" type="curve" smooth="yes"/>
      <point x="406" y="357"/>
      <point x="406" y="299"/>
      <point x="406" y="176" type="curve" smooth="yes"/>
      <point x="406" y="84"/>
      <point x="370" y="13"/>
      <point x="257" y="-5" type="curve"/>
      <point x="257" y="-89"/>
      <point x="276" y="-120"/>
      <point x="354" y="-120" type="curve" smooth="yes"/>
      <point x="381" y="-120" type="line"/>
      <point x="386" y="-176" type="line"/>
      <point x="371" y="-180"/>
      <point x="344" y="-184"/>
      <point x="321" y="-184" type="curve" smooth="yes"/>
      <point x="218" y="-184"/>
      <point x="179" y="-105"/>
      <point x="179" y="-5" type="curve"/>
      <point x="84" y="8"/>
      <point x="45" y="87"/>
      <point x="45" y="176" type="curve" smooth="yes"/>
      <point x="45" y="300"/>
      <point x="44" y="354"/>
      <point x="44" y="520" type="curve" smooth="yes"/>
      <point x="44" y="607"/>
      <point x="72" y="716"/>
    </contour>
    <contour>
      <point x="225" y="652" type="curve" smooth="yes"/>
      <point x="140" y="652"/>
      <point x="124" y="592"/>
      <point x="124" y="520" type="curve" smooth="yes"/>
      <point x="124" y="354"/>
      <point x="124" y="300"/>
      <point x="124" y="176" type="curve" smooth="yes"/>
      <point x="124" y="97"/>
      <point x="145" y="54"/>
      <point x="225" y="54" type="curve" smooth="yes"/>
      <point x="296" y="54"/>
      <point x="326" y="97"/>
      <point x="326" y="176" type="curve" smooth="yes"/>
      <point x="326" y="300"/>
      <point x="326" y="355"/>
      <point x="326" y="520" type="curve" smooth="yes"/>
      <point x="326" y="592"/>
      <point x="309" y="652"/>
    </contour>
  </outline>
</glyph>
<glyph name="R" format="2">
  <advance width="450"/>
  <unicode hex="0052"/>
  <outline>
    <contour>
      <point x="60" y="708" type="line"/>
      <point x="228" y="708" type="line" smooth="yes"/>
      <point x="340" y="708"/>
      <point x="415" y="642"/>
      <point x="415" y="524" type="curve" smooth="yes"/>
      <point x="415" y="523"/>
      <point x="415" y="493"/>
      <point x="415" y="467" type="curve" smooth="yes"/>
      <point x="415" y="371"/>
      <point x="342" y="308"/>
      <point x="281" y="297" type="curve"/>
      <point x="422" y="0" type="line"/>
      <point x="340" y="0" type="line"/>
      <point x="207" y="292" type="line"/>
      <point x="140" y="292" type="line"/>
      <point x="140" y="0" type="line"/>
      <point x="60" y="0" type="line"/>
    </contour>
    <contour>
      <point x="140" y="356" type="line"/>
      <point x="231" y="356" type="line" smooth="yes"/>
      <point x="305" y="356"/>
      <point x="336" y="401"/>
      <point x="335" y="468" type="curve" smooth="yes"/>
      <point x="335" y="494"/>
      <point x="335" y="524"/>
      <point x="335" y="525" type="curve" smooth="yes"/>
      <point x="335" y="609"/>
      <point x="298" y="644"/>
      <point x="229" y="644" type="curve" smooth="yes"/>
      <point x="140" y="644" type="line"/>
    </contour>
  </outline>
</glyph>
<glyph name="S" format="2">
  <advance width="450"/>
  <unicode hex="0053"/>
  <outline>
    <contour>
      <point x="240" y="716" type="curve" smooth="yes"/>
      <point x="302" y="716"/>
      <point x="355" y="693"/>
      <point x="402" y="656" type="curve"/>
      <point x="368" y="605" type="line"/>
      <point x="333" y="632"/>
      <point x="291" y="652"/>
      <point x="239" y="652" type="curve" smooth="yes"/>
      <point x="168" y="652"/>
      <point x="123" y="614"/>
      <point x="123" y="548" type="curve" smooth="yes"/>
      <point x="123" y="456"/>
      <point x="156" y="436"/>
      <point x="234" y="396" type="curve" smooth="yes"/>
      <point x="293" y="365" type="line" smooth="yes"/>
      <point x="369" y="327"/>
      <point x="429" y="285"/>
      <point x="429" y="168" type="curve" smooth="yes"/>
      <point x="429" y="74"/>
      <point x="358" y="-8"/>
      <point x="224" y="-8" type="curve" smooth="yes"/>
      <point x="150" y="-8"/>
      <point x="104" y="4"/>
      <point x="30" y="59" type="curve"/>
      <point x="63" y="109" type="line"/>
      <point x="125" y="67"/>
      <point x="161" y="56"/>
      <point x="227" y="56" type="curve" smooth="yes"/>
      <point x="301" y="56"/>
      <point x="349" y="102"/>
      <point x="349" y="168" type="curve" smooth="yes"/>
      <point x="349" y="256"/>
      <point x="309" y="285"/>
      <point x="239" y="319" type="curve" smooth="yes"/>
      <point x="190" y="343" type="line" smooth="yes"/>
      <point x="107" y="382"/>
      <point x="42" y="432"/>
      <point x="42" y="549" type="curve" smooth="yes"/>
      <point x="42" y="608"/>
      <point x="74" y="716"/>
    </contour>
  </outline>
</glyph>
<glyph name="T" format="2">
  <advance width="450"/>
  <unicode hex="0054"/>
  <outline>
    <contour>
      <point x="40" y="708" type="line"/>
      <point x="410" y="708" type="line"/>
      <point x="410" y="641" type="line"/>
      <point x="263" y="641" type="line"/>
      <point x="263" y="0" type="line"/>
      <point x="183" y="0" type="line"/>
      <point x="183" y="641" type="line"/>
      <point x="40" y="641" type="line"/>
    </contour>
  </outline>
</glyph>
<glyph name="U" format="2">
  <advance width="450"/>
  <unicode hex="0055"/>
  <anchor x="225" y="880" name="AccentCenter"/>
  <outline>
    <contour>
      <point x="48" y="708" type="line"/>
      <point x="129" y="708" type="line"/>
      <point x="129" y="193" type="line" smooth="yes"/>
      <point x="129" y="104"/>
      <point x="160" y="56"/>
      <point x="226" y="56" type="curve" smooth="yes"/>
      <point x="294" y="56"/>
      <point x="322" y="104"/>
      <point x="322" y="193" type="curve" smooth="yes"/>
      <point x="322" y="708" type="line"/>
      <point x="402" y="708" type="line"/>
      <point x="402" y="191" type="line" smooth="yes"/>
      <point x="402" y="52"/>
      <point x="322" y="-8"/>
      <point x="225" y="-8" type="curve" smooth="yes"/>
      <point x="129" y="-8"/>
      <point x="48" y="52"/>
      <point x="48" y="193" type="curve" smooth="yes"/>
    </contour>
  </outline>
</glyph>
<glyph name="V" format="2">
  <advance width="450"/>
  <unicode hex="0056"/>
  <outline>
    <contour>
      <point x="20" y="708" type="line"/>
      <point x="95" y="708" type="line"/>
      <point x="225" y="108" type="line"/>
      <point x="355" y="708" type="line"/>
      <point x="430" y="708" type="line"/>
      <point x="260" y="0" type="line"/>
      <point x="189" y="0" type="line"/>
    </contour>
  </outline>
</glyph>
<glyph name="W" format="2">
  <advance width="450"/>
  <unicode hex="0057"/>
  <outline>
    <contour>
      <point x="16" y="708" type="line"/>
      <point x="95" y="708" type="line"/>
      <point x="132" y="167" type="line"/>
      <point x="205" y="552" type="line"/>
      <point x="251" y="552" type="line"/>
      <point x="319" y="167" type="line"/>
      <point x="357" y="708" type="line"/>
      <point x="434" y="708" type="line"/>
      <point x="355" y="0" type="line"/>
      <point x="292" y="0" type="line"/>
      <point x="227" y="368" type="line"/>
      <point x="160" y="0" type="line"/>
      <point x="97" y="0" type="line"/>
    </contour>
  </outline>
</glyph>
<glyph name="X" format="2">
  <advance width="450"/>
  <unicode hex="0058"/>
  <outline>
    <contour>
      <point x="16" y="708" type="line"/>
      <point x="100" y="708" type="line"/>
      <point x="225" y="411" type="line"/>
      <point x="350" y="708" type="line"/>
      <point x="434" y="708" type="line"/>
      <point x="261" y="354" type="line"/>
      <point x="434" y="0" type="line"/>
      <point x="350" y="0" type="line"/>
      <point x="225" y="298" type="line"/>
      <point x="100" y="0" type="line"/>
      <point x="16" y="0" type="line"/>
      <point x="189" y="354" type="line"/>
    </contour>
  </outline>
</glyph>
<glyph name="Y" format="2">
  <advance width="450"/>
  <unicode hex="0059"/>
  <anchor x="299" y="880" name="AccentCenter"/>
  <outline>
    <contour>
      <point x="16" y="708" type="line"/>
      <point x="86" y="708" type="line"/>
      <point x="226" y="342" type="line"/>
      <point x="364" y="708" type="line"/>
      <point x="434" y="708" type="line"/>
      <point x="266" y="280" type="line"/>
      <point x="266" y="0" type="line"/>
      <point x="186" y="0" type="line"/>
      <point x="186" y="280" type="line"/>
    </contour>
  </outline>
</glyph>
<glyph name="Z" format="2">
  <advance width="450"/>
  <unicode hex="005A"/>
  <outline>
    <contour>
      <point x="40" y="708" type="line"/>
      <point x="407" y="708" type="line"/>
      <point x="407" y="644" type="line"/>
      <point x="119" y="64" type="line"/>
      <point x="410" y="64" type="line"/>
      <point x="410" y="0" type="line"/>
      <point x="40" y="0" type="line"/>
      <point x="40" y="64" type="line"/>
      <point x="328" y="644" type="line"/>
      <point x="40" y="644" type="line"/>
    </contour>
  </outline>
</glyph>
<glyph name="a" format="2">
  <advance width="450"/>
  <unicode hex="0061"/>
  <anchor x="320" y="687" name="AccentCenter"/>
  <anchor x="310" y="687" name="Ring"/>
  <outline>
    <contour>
      <point x="188" y="528" type="curve" smooth="yes"/>
      <point x="327" y="528"/>
      <point x="375" y="447"/>
      <point x="375" y="356" type="curve" smooth="yes"/>
      <point x="375" y="66" type="line"/>
      <point x="375" y="66"/>
      <point x="440" y="66"/>
      <point x="440" y="66" type="curve"/>
      <point x="440" y="0" type="line"/>
      <point x="435" y="0"/>
      <point x="295" y="0"/>
      <point x="295" y="0" type="curve" smooth="yes"/>
      <point x="295" y="0"/>
      <point x="295" y="66"/>
      <point x="295" y="66" type="curve"/>
      <point x="279" y="23"/>
      <point x="236" y="-8"/>
      <point x="166" y="-8" type="curve" smooth="yes"/>
      <point x="83" y="-8"/>
      <point x="26" y="52"/>
      <point x="26" y="144" type="curve" smooth="yes"/>
      <point x="26" y="240"/>
      <point x="104" y="303"/>
      <point x="195" y="303" type="curve" smooth="yes"/>
      <point x="295" y="303" type="line"/>
      <point x="295" y="356" type="line" smooth="yes"/>
      <point x="295" y="408"/>
      <point x="274" y="464"/>
      <point x="187" y="464" type="curve" smooth="yes"/>
      <point x="153" y="464"/>
      <point x="122" y="456"/>
      <point x="89" y="440" type="curve"/>
      <point x="69" y="497" type="line"/>
      <point x="116" y="521"/>
      <point x="151" y="528"/>
    </contour>
    <contour>
      <point x="295" y="241" type="line"/>
      <point x="195" y="241" type="line" smooth="yes"/>
      <point x="144" y="241"/>
      <point x="106" y="207"/>
      <point x="106" y="145" type="curve" smooth="yes"/>
      <point x="106" y="78"/>
      <point x="144" y="56"/>
      <point x="188" y="56" type="curve" smooth="yes"/>
      <point x="246" y="56"/>
      <point x="277" y="94"/>
      <point x="295" y="137" type="curve"/>
    </contour>
  </outline>
</glyph>
<glyph name="b" format="2">
  <advance width="450"/>
  <unicode hex="0062"/>
  <outline>
    <contour>
      <point x="60" y="724" type="line"/>
      <point x="140" y="724" type="line"/>
      <point x="140" y="450" type="line"/>
      <point x="143" y="456"/>
      <point x="167" y="528"/>
      <point x="261" y="528" type="curve" smooth="yes"/>
      <point x="362" y="528"/>
      <point x="411" y="455"/>
      <point x="411" y="361" type="curve" smooth="yes"/>
      <point x="411" y="315"/>
      <point x="411" y="202"/>
      <point x="411" y="157" type="curve" smooth="yes"/>
      <point x="411" y="55"/>
      <point x="359" y="-8"/>
      <point x="269" y="-8" type="curve" smooth="yes"/>
      <point x="178" y="-8"/>
      <point x="146" y="41"/>
      <point x="135" y="88" type="curve"/>
      <point x="122" y="0" type="line"/>
      <point x="60" y="0" type="line"/>
    </contour>
    <contour>
      <point x="240" y="464" type="curve" smooth="yes"/>
      <point x="176" y="464"/>
      <point x="153" y="417"/>
      <point x="140" y="380" type="curve"/>
      <point x="140" y="146" type="line"/>
      <point x="149" y="112"/>
      <point x="165" y="56"/>
      <point x="247" y="56" type="curve" smooth="yes"/>
      <point x="300" y="56"/>
      <point x="331" y="88"/>
      <point x="331" y="157" type="curve" smooth="yes"/>
      <point x="331" y="202"/>
      <point x="331" y="315"/>
      <point x="331" y="361" type="curve" smooth="yes"/>
      <point x="331" y="434"/>
      <point x="301" y="464"/>
    </contour>
  </outline>
</glyph>
<glyph name="c" format="2">
  <advance width="450"/>
  <unicode hex="0063"/>
  <outline>
    <contour>
      <point x="235" y="528" type="curve" smooth="yes"/>
      <point x="298" y="528"/>
      <point x="337" y="511"/>
      <point x="393" y="464" type="curve"/>
      <point x="354" y="413" type="line"/>
      <point x="326" y="438"/>
      <point x="296" y="464"/>
      <point x="235" y="464" type="curve" smooth="yes"/>
      <point x="150" y="464"/>
      <point x="128" y="405"/>
      <point x="128" y="333" type="curve" smooth="yes"/>
      <point x="128" y="270"/>
      <point x="128" y="253"/>
      <point x="128" y="191" type="curve" smooth="yes"/>
      <point x="128" y="97"/>
      <point x="153" y="56"/>
      <point x="226" y="56" type="curve" smooth="yes"/>
      <point x="289" y="56"/>
      <point x="322" y="75"/>
      <point x="370" y="110" type="curve"/>
      <point x="406" y="56" type="line"/>
      <point x="353" y="14"/>
      <point x="305" y="-8"/>
      <point x="222" y="-8" type="curve" smooth="yes"/>
      <point x="93" y="-8"/>
      <point x="48" y="68"/>
      <point x="48" y="191" type="curve" smooth="yes"/>
      <point x="48" y="253"/>
      <point x="48" y="270"/>
      <point x="48" y="333" type="curve" smooth="yes"/>
      <point x="48" y="441"/>
      <point x="100" y="528"/>
    </contour>
  </outline>
</glyph>
<glyph name="d" format="2">
  <advance width="450"/>
  <unicode hex="0064"/>
  <outline>
    <contour>
      <point x="310" y="724" type="line"/>
      <point x="390" y="724" type="line"/>
      <point x="390" y="0" type="line"/>
      <point x="328" y="0" type="line"/>
      <point x="315" y="88" type="line"/>
      <point x="304" y="41"/>
      <point x="272" y="-8"/>
      <point x="181" y="-8" type="curve" smooth="yes"/>
      <point x="91" y="-8"/>
      <point x="48" y="55"/>
      <point x="48" y="157" type="curve" smooth="yes"/>
      <point x="48" y="202"/>
      <point x="48" y="315"/>
      <point x="48" y="361" type="curve" smooth="yes"/>
      <point x="48" y="455"/>
      <point x="88" y="528"/>
      <point x="189" y="528" type="curve" smooth="yes"/>
      <point x="283" y="528"/>
      <point x="307" y="456"/>
      <point x="310" y="450" type="curve"/>
    </contour>
    <contour>
      <point x="210" y="464" type="curve" smooth="yes"/>
      <point x="149" y="464"/>
      <point x="128" y="434"/>
      <point x="128" y="361" type="curve" smooth="yes"/>
      <point x="128" y="315"/>
      <point x="128" y="202"/>
      <point x="128" y="157" type="curve" smooth="yes"/>
      <point x="128" y="88"/>
      <point x="150" y="56"/>
      <point x="203" y="56" type="curve" smooth="yes"/>
      <point x="285" y="56"/>
      <point x="301" y="112"/>
      <point x="310" y="146" type="curve"/>
      <point x="310" y="380" type="line"/>
      <point x="297" y="417"/>
      <point x="274" y="464"/>
    </contour>
  </outline>
</glyph>
<glyph name="e" format="2">
  <advance width="450"/>
  <unicode hex="0065"/>
  <anchor x="318" y="687" name="AccentCenter"/>
  <outline>
    <contour>
      <point x="222" y="528" type="curve" smooth="yes"/>
      <point x="356" y="528"/>
      <point x="397" y="431"/>
      <point x="397" y="348" type="curve" smooth="yes"/>
      <point x="397" y="288"/>
      <point x="397" y="294"/>
      <point x="397" y="292" type="curve" smooth="yes"/>
      <point x="397" y="264"/>
      <point x="395" y="245"/>
      <point x="390" y="236" type="curve"/>
      <point x="131" y="236" type="line"/>
      <point x="131" y="234"/>
      <point x="131" y="232"/>
      <point x="131" y="198" type="curve" smooth="yes"/>
      <point x="131" y="152"/>
      <point x="119" y="56"/>
      <point x="241" y="56" type="curve" smooth="yes"/>
      <point x="292" y="56"/>
      <point x="329" y="68"/>
      <point x="378" y="99" type="curve"/>
      <point x="406" y="38" type="line"/>
      <point x="329" y="-3"/>
      <point x="296" y="-8"/>
      <point x="238" y="-8" type="curve" smooth="yes"/>
      <point x="73" y="-8"/>
      <point x="48" y="112"/>
      <point x="48" y="179" type="curve" smooth="yes"/>
      <point x="48" y="263"/>
      <point x="48" y="258"/>
      <point x="48" y="348" type="curve" smooth="yes"/>
      <point x="48" y="431"/>
      <point x="82" y="528"/>
    </contour>
    <contour>
      <point x="223" y="464" type="curve" smooth="yes"/>
      <point x="144" y="464"/>
      <point x="131" y="405"/>
      <point x="131" y="348" type="curve" smooth="yes"/>
      <point x="131" y="290"/>
      <point x="131" y="297"/>
      <point x="131" y="295" type="curve"/>
      <point x="317" y="295" type="line"/>
      <point x="317" y="348" type="line" smooth="yes"/>
      <point x="317" y="405"/>
      <point x="303" y="464"/>
    </contour>
  </outline>
</glyph>
<glyph name="f" format="2">
  <advance width="450"/>
  <unicode hex="0066"/>
  <outline>
    <contour>
      <point x="310" y="780" type="curve" smooth="yes"/>
      <point x="369" y="780"/>
      <point x="389" y="772"/>
      <point x="428" y="759" type="curve"/>
      <point x="414" y="700" type="line"/>
      <point x="385" y="709"/>
      <point x="352" y="716"/>
      <point x="311" y="716" type="curve" smooth="yes"/>
      <point x="257" y="716"/>
      <point x="232" y="694"/>
      <point x="232" y="627" type="curve" smooth="yes"/>
      <point x="232" y="520" type="line"/>
      <point x="381" y="520" type="line"/>
      <point x="381" y="456" type="line"/>
      <point x="232" y="456" type="line"/>
      <point x="232" y="0" type="line"/>
      <point x="152" y="0" type="line"/>
      <point x="152" y="456" type="line"/>
      <point x="32" y="456" type="line"/>
      <point x="32" y="520" type="line"/>
      <point x="152" y="520" type="line"/>
      <point x="152" y="627" type="line" smooth="yes"/>
      <point x="152" y="726"/>
      <point x="206" y="780"/>
    </contour>
  </outline>
</glyph>
<glyph name="g" format="2">
  <advance width="450"/>
  <unicode hex="0067"/>
  <outline>
    <contour>
      <point x="184" y="528" type="curve" smooth="yes"/>
      <point x="233" y="528"/>
      <point x="273" y="512"/>
      <point x="293" y="497" type="curve"/>
      <point x="393" y="520" type="line"/>
      <point x="421" y="520" type="line"/>
      <point x="421" y="451" type="line"/>
      <point x="332" y="451" type="line"/>
      <point x="337" y="441"/>
      <point x="343" y="418"/>
      <point x="343" y="384" type="curve" smooth="yes"/>
      <point x="343" y="384"/>
      <point x="343" y="358"/>
      <point x="343" y="329" type="curve" smooth="yes"/>
      <point x="342" y="253"/>
      <point x="285" y="190"/>
      <point x="184" y="190" type="curve" smooth="yes"/>
      <point x="149" y="190"/>
      <point x="144" y="196"/>
      <point x="144" y="196" type="curve"/>
      <point x="105" y="117" type="line"/>
      <point x="301" y="92" type="line" smooth="yes"/>
      <point x="377" y="82"/>
      <point x="421" y="44"/>
      <point x="421" y="-36" type="curve" smooth="yes"/>
      <point x="421" y="-37"/>
      <point x="421" y="-38"/>
      <point x="421" y="-50" type="curve" smooth="yes"/>
      <point x="420" y="-128"/>
      <point x="347" y="-192"/>
      <point x="231" y="-192" type="curve" smooth="yes"/>
      <point x="139" y="-192"/>
      <point x="80" y="-169"/>
      <point x="11" y="-125" type="curve"/>
      <point x="11" y="-85" type="line"/>
      <point x="96" y="51" type="line"/>
      <point x="27" y="60" type="line"/>
      <point x="27" y="112" type="line"/>
      <point x="86" y="214" type="line"/>
      <point x="35" y="251"/>
      <point x="23" y="291"/>
      <point x="23" y="329" type="curve" smooth="yes"/>
      <point x="23" y="359"/>
      <point x="23" y="359"/>
      <point x="23" y="384" type="curve" smooth="yes"/>
      <point x="23" y="469"/>
      <point x="92" y="528"/>
    </contour>
    <contour>
      <point x="157" y="44" type="line"/>
      <point x="157" y="44"/>
      <point x="88" y="-88"/>
      <point x="88" y="-88" type="curve"/>
      <point x="127" y="-109"/>
      <point x="172" y="-128"/>
      <point x="232" y="-128" type="curve" smooth="yes"/>
      <point x="314" y="-128"/>
      <point x="342" y="-93"/>
      <point x="342" y="-50" type="curve" smooth="yes"/>
      <point x="342" y="-39"/>
      <point x="342" y="-38"/>
      <point x="342" y="-37" type="curve" smooth="yes"/>
      <point x="341" y="0"/>
      <point x="337" y="22"/>
      <point x="294" y="27" type="curve" smooth="yes"/>
    </contour>
    <contour>
      <point x="184" y="464" type="curve" smooth="yes"/>
      <point x="126" y="464"/>
      <point x="103" y="428"/>
      <point x="103" y="384" type="curve" smooth="yes"/>
      <point x="103" y="384"/>
      <point x="103" y="358"/>
      <point x="103" y="329" type="curve" smooth="yes"/>
      <point x="104" y="284"/>
      <point x="122" y="248"/>
      <point x="184" y="248" type="curve" smooth="yes"/>
      <point x="246" y="248"/>
      <point x="263" y="286"/>
      <point x="263" y="329" type="curve" smooth="yes"/>
      <point x="263" y="359"/>
      <point x="263" y="359"/>
      <point x="263" y="384" type="curve" smooth="yes"/>
      <point x="263" y="426"/>
      <point x="242" y="464"/>
    </contour>
  </outline>
</glyph>
<glyph name="h" format="2">
  <advance width="450"/>
  <unicode hex="0068"/>
  <outline>
    <contour>
      <point x="64" y="707" type="line"/>
      <point x="144" y="707" type="line"/>
      <point x="144" y="450" type="line"/>
      <point x="165" y="494"/>
      <point x="199" y="528"/>
      <point x="263" y="528" type="curve" smooth="yes"/>
      <point x="362" y="528"/>
      <point x="402" y="470"/>
      <point x="402" y="385" type="curve" smooth="yes"/>
      <point x="402" y="0" type="line"/>
      <point x="322" y="0" type="line"/>
      <point x="322" y="383" type="line" smooth="yes"/>
      <point x="322" y="435"/>
      <point x="302" y="464"/>
      <point x="252" y="464" type="curve" smooth="yes"/>
      <point x="194" y="464"/>
      <point x="165" y="427"/>
      <point x="144" y="379" type="curve"/>
      <point x="144" y="0" type="line"/>
      <point x="64" y="0" type="line"/>
    </contour>
  </outline>
</glyph>
<glyph name="i" format="2">
  <advance width="450"/>
  <unicode hex="0069"/>
  <outline>
    <contour>
      <point x="216" y="739" type="curve" smooth="yes"/>
      <point x="248" y="739"/>
      <point x="271" y="713"/>
      <point x="271" y="684" type="curve" smooth="yes"/>
      <point x="271" y="655"/>
      <point x="248" y="629"/>
      <point x="216" y="629" type="curve" smooth="yes"/>
      <point x="184" y="629"/>
      <point x="161" y="655"/>
      <point x="161" y="684" type="curve" smooth="yes"/>
      <point x="161" y="713"/>
      <point x="184" y="739"/>
    </contour>
    <component base="dotlessi"/>
  </outline>
</glyph>
<glyph name="j" format="2">
  <advance width="450"/>
  <unicode hex="006A"/>
  <outline>
    <contour>
      <point x="322" y="738" type="curve" smooth="yes"/>
      <point x="354" y="738"/>
      <point x="378" y="712"/>
      <point x="378" y="683" type="curve" smooth="yes"/>
      <point x="378" y="654"/>
      <point x="354" y="628"/>
      <point x="322" y="628" type="curve" smooth="yes"/>
      <point x="293" y="628"/>
      <point x="268" y="651"/>
      <point x="268" y="683" type="curve" smooth="yes"/>
      <point x="268" y="715"/>
      <point x="293" y="738"/>
    </contour>
    <contour>
      <point x="92" y="520" type="line"/>
      <point x="362" y="520" type="line"/>
      <point x="362" y="-8" type="line" smooth="yes"/>
      <point x="362" y="-119"/>
      <point x="289" y="-193"/>
      <point x="162" y="-193" type="curve" smooth="yes"/>
      <point x="76" y="-193"/>
      <point x="26" y="-166"/>
      <point x="-22" y="-135" type="curve"/>
      <point x="16" y="-76" type="line"/>
      <point x="59" y="-106"/>
      <point x="92" y="-129"/>
      <point x="164" y="-129" type="curve" smooth="yes"/>
      <point x="240" y="-129"/>
      <point x="282" y="-93"/>
      <point x="282" y="-8" type="curve" smooth="yes"/>
      <point x="282" y="456" type="line"/>
      <point x="92" y="456" type="line"/>
    </contour>
  </outline>
</glyph>
<glyph name="k" format="2">
  <advance width="450"/>
  <unicode hex="006B"/>
  <outline>
    <contour>
      <point x="64" y="708" type="line"/>
      <point x="144" y="708" type="line"/>
      <point x="144" y="309" type="line"/>
      <point x="188" y="309" type="line"/>
      <point x="333" y="520" type="line"/>
      <point x="422" y="520" type="line"/>
      <point x="249" y="275" type="line"/>
      <point x="425" y="0" type="line"/>
      <point x="336" y="0" type="line"/>
      <point x="183" y="245" type="line"/>
      <point x="144" y="245" type="line"/>
      <point x="144" y="0" type="line"/>
      <point x="64" y="0" type="line"/>
    </contour>
  </outline>
</glyph>
<glyph name="l" format="2">
  <advance width="450"/>
  <unicode hex="006C"/>
  <outline>
    <contour>
      <point x="24" y="724" type="line"/>
      <point x="248" y="724" type="line"/>
      <point x="248" y="64" type="line"/>
      <point x="414" y="64" type="line"/>
      <point x="414" y="0" type="line"/>
      <point x="168" y="0" type="line"/>
      <point x="168" y="660" type="line"/>
      <point x="24" y="660" type="line"/>
    </contour>
  </outline>
</glyph>
<glyph name="m" format="2">
  <advance width="450"/>
  <unicode hex="006D"/>
  <outline>
    <contour>
      <point x="32" y="520" type="line"/>
      <point x="96" y="520" type="line"/>
      <point x="106" y="458" type="line"/>
      <point x="117" y="499"/>
      <point x="138" y="528"/>
      <point x="187" y="528" type="curve" smooth="yes"/>
      <point x="227" y="528"/>
      <point x="256" y="504"/>
      <point x="261" y="461" type="curve"/>
      <point x="270" y="501"/>
      <point x="289" y="528"/>
      <point x="340" y="528" type="curve" smooth="yes"/>
      <point x="384" y="528"/>
      <point x="414" y="492"/>
      <point x="414" y="428" type="curve" smooth="yes"/>
      <point x="414" y="0" type="line"/>
      <point x="333" y="0" type="line"/>
      <point x="333" y="428" type="line" smooth="yes"/>
      <point x="333" y="451"/>
      <point x="328" y="464"/>
      <point x="305" y="464" type="curve" smooth="yes"/>
      <point x="286" y="464"/>
      <point x="277" y="449"/>
      <point x="268" y="413" type="curve"/>
      <point x="268" y="0" type="line"/>
      <point x="185" y="0" type="line"/>
      <point x="185" y="428" type="line" smooth="yes"/>
      <point x="185" y="447"/>
      <point x="180" y="464"/>
      <point x="156" y="464" type="curve" smooth="yes"/>
      <point x="129" y="464"/>
      <point x="121" y="441"/>
      <point x="114" y="413" type="curve"/>
      <point x="114" y="0" type="line"/>
      <point x="32" y="0" type="line"/>
    </contour>
  </outline>
</glyph>
<glyph name="n" format="2">
  <advance width="450"/>
  <unicode hex="006E"/>
  <anchor x="252" y="687" name="AccentCenter"/>
  <outline>
    <contour>
      <point x="64" y="520" type="line"/>
      <point x="128" y="520" type="line"/>
      <point x="144" y="450" type="line"/>
      <point x="165" y="494"/>
      <point x="206" y="528"/>
      <point x="270" y="528" type="curve" smooth="yes"/>
      <point x="369" y="528"/>
      <point x="402" y="470"/>
      <point x="402" y="385" type="curve" smooth="yes"/>
      <point x="402" y="0" type="line"/>
      <point x="322" y="0" type="line"/>
      <point x="322" y="383" type="line" smooth="yes"/>
      <point x="322" y="435"/>
      <point x="308" y="464"/>
      <point x="258" y="464" type="curve" smooth="yes"/>
      <point x="200" y="464"/>
      <point x="165" y="427"/>
      <point x="144" y="379" type="curve"/>
      <point x="144" y="0" type="line"/>
      <point x="64" y="0" type="line"/>
    </contour>
  </outline>
</glyph>
<glyph name="o" format="2">
  <advance width="450"/>
  <unicode hex="006F"/>
  <anchor x="222" y="687" name="AccentCenter"/>
  <outline>
    <contour>
      <point x="224" y="528" type="curve" smooth="yes"/>
      <point x="353" y="528"/>
      <point x="406" y="449"/>
      <point x="406" y="347" type="curve" smooth="yes"/>
      <point x="406" y="170"/>
      <point x="406" y="342"/>
      <point x="406" y="173" type="curve" smooth="yes"/>
      <point x="406" y="57"/>
      <point x="347" y="-7"/>
      <point x="224" y="-7" type="curve" smooth="yes"/>
      <point x="104" y="-7"/>
      <point x="44" y="60"/>
      <point x="44" y="173" type="curve" smooth="yes"/>
      <point x="44" y="342"/>
      <point x="44" y="170"/>
      <point x="44" y="347" type="curve" smooth="yes"/>
      <point x="44" y="449"/>
      <point x="96" y="528"/>
    </contour>
    <contour>
      <point x="224" y="463" type="curve" smooth="yes"/>
      <point x="156" y="463"/>
      <point x="124" y="426"/>
      <point x="124" y="347" type="curve" smooth="yes"/>
      <point x="124" y="170"/>
      <point x="124" y="341"/>
      <point x="124" y="173" type="curve" smooth="yes"/>
      <point x="124" y="102"/>
      <point x="157" y="57"/>
      <point x="224" y="57" type="curve" smooth="yes"/>
      <point x="294" y="57"/>
      <point x="326" y="101"/>
      <point x="326" y="173" type="curve" smooth="yes"/>
      <point x="326" y="341"/>
      <point x="326" y="170"/>
      <point x="326" y="347" type="curve" smooth="yes"/>
      <point x="326" y="426"/>
      <point x="294" y="463"/>
    </contour>
  </outline>
</glyph>
<glyph name="p" format="2">
  <advance width="450"/>
  <unicode hex="0070"/>
  <outline>
    <contour>
      <point x="60" y="520" type="line"/>
      <point x="122" y="520" type="line"/>
      <point x="135" y="432" type="line"/>
      <point x="146" y="479"/>
      <point x="178" y="528"/>
      <point x="269" y="528" type="curve" smooth="yes"/>
      <point x="359" y="528"/>
      <point x="411" y="465"/>
      <point x="411" y="363" type="curve" smooth="yes"/>
      <point x="411" y="318"/>
      <point x="411" y="205"/>
      <point x="411" y="159" type="curve" smooth="yes"/>
      <point x="411" y="65"/>
      <point x="362" y="-8"/>
      <point x="261" y="-8" type="curve" smooth="yes"/>
      <point x="167" y="-8"/>
      <point x="143" y="64"/>
      <point x="140" y="70" type="curve"/>
      <point x="140" y="-204" type="line"/>
      <point x="60" y="-204" type="line"/>
    </contour>
    <contour>
      <point x="247" y="464" type="curve" smooth="yes"/>
      <point x="165" y="464"/>
      <point x="149" y="408"/>
      <point x="140" y="374" type="curve"/>
      <point x="140" y="140" type="line"/>
      <point x="153" y="103"/>
      <point x="176" y="56"/>
      <point x="240" y="56" type="curve" smooth="yes"/>
      <point x="301" y="56"/>
      <point x="331" y="86"/>
      <point x="331" y="159" type="curve" smooth="yes"/>
      <point x="331" y="205"/>
      <point x="331" y="318"/>
      <point x="331" y="363" type="curve" smooth="yes"/>
      <point x="331" y="432"/>
      <point x="300" y="464"/>
    </contour>
  </outline>
</glyph>
<glyph name="q" format="2">
  <advance width="450"/>
  <unicode hex="0071"/>
  <outline>
    <contour>
      <point x="328" y="520" type="line"/>
      <point x="390" y="520" type="line"/>
      <point x="390" y="-204" type="line"/>
      <point x="310" y="-204" type="line"/>
      <point x="310" y="70" type="line"/>
      <point x="307" y="64"/>
      <point x="283" y="-8"/>
      <point x="189" y="-8" type="curve" smooth="yes"/>
      <point x="88" y="-8"/>
      <point x="48" y="65"/>
      <point x="48" y="159" type="curve" smooth="yes"/>
      <point x="48" y="205"/>
      <point x="48" y="318"/>
      <point x="48" y="363" type="curve" smooth="yes"/>
      <point x="48" y="465"/>
      <point x="91" y="528"/>
      <point x="181" y="528" type="curve" smooth="yes"/>
      <point x="272" y="528"/>
      <point x="304" y="479"/>
      <point x="315" y="432" type="curve"/>
    </contour>
    <contour>
      <point x="203" y="464" type="curve" smooth="yes"/>
      <point x="150" y="464"/>
      <point x="128" y="432"/>
      <point x="128" y="363" type="curve" smooth="yes"/>
      <point x="128" y="318"/>
      <point x="128" y="205"/>
      <point x="128" y="159" type="curve" smooth="yes"/>
      <point x="128" y="86"/>
      <point x="149" y="56"/>
      <point x="210" y="56" type="curve" smooth="yes"/>
      <point x="274" y="56"/>
      <point x="297" y="103"/>
      <point x="310" y="140" type="curve"/>
      <point x="310" y="374" type="line"/>
      <point x="301" y="408"/>
      <point x="285" y="464"/>
    </contour>
  </outline>
</glyph>
<glyph name="r" format="2">
  <advance width="450"/>
  <unicode hex="0072"/>
  <outline>
    <contour>
      <point x="100" y="520" type="line"/>
      <point x="130" y="386" type="line"/>
      <point x="157" y="448"/>
      <point x="184" y="528"/>
      <point x="303" y="528" type="curve" smooth="yes"/>
      <point x="335" y="528"/>
      <point x="358" y="525"/>
      <point x="404" y="514" type="curve"/>
      <point x="391" y="452" type="line"/>
      <point x="366" y="459"/>
      <point x="335" y="464"/>
      <point x="305" y="464" type="curve" smooth="yes"/>
      <point x="210" y="464"/>
      <point x="172" y="379"/>
      <point x="159" y="335" type="curve"/>
      <point x="159" y="0" type="line"/>
      <point x="79" y="0" type="line"/>
      <point x="79" y="341" type="line"/>
      <point x="22" y="520" type="line"/>
    </contour>
  </outline>
</glyph>
<glyph name="s" format="2">
  <advance width="450"/>
  <unicode hex="0073"/>
  <outline>
    <contour>
      <point x="235" y="528" type="curve" smooth="yes"/>
      <point x="322" y="528"/>
      <point x="364" y="503"/>
      <point x="399" y="480" type="curve"/>
      <point x="368" y="422" type="line"/>
      <point x="333" y="447"/>
      <point x="293" y="464"/>
      <point x="230" y="464" type="curve" smooth="yes"/>
      <point x="164" y="464"/>
      <point x="115" y="439"/>
      <point x="115" y="391" type="curve" smooth="yes"/>
      <point x="115" y="351"/>
      <point x="135" y="326"/>
      <point x="205" y="308" type="curve" smooth="yes"/>
      <point x="254" y="296" type="line" smooth="yes"/>
      <point x="372" y="267"/>
      <point x="414" y="224"/>
      <point x="417" y="142" type="curve" smooth="yes"/>
      <point x="420" y="43"/>
      <point x="344" y="-8"/>
      <point x="219" y="-8" type="curve" smooth="yes"/>
      <point x="136" y="-8"/>
      <point x="82" y="12"/>
      <point x="21" y="50" type="curve"/>
      <point x="51" y="110" type="line"/>
      <point x="103" y="79"/>
      <point x="156" y="57"/>
      <point x="217" y="57" type="curve" smooth="yes"/>
      <point x="323" y="57"/>
      <point x="344" y="92"/>
      <point x="344" y="138" type="curve" smooth="yes"/>
      <point x="344" y="183"/>
      <point x="319" y="208"/>
      <point x="236" y="228" type="curve" smooth="yes"/>
      <point x="189" y="239" type="line" smooth="yes"/>
      <point x="80" y="265"/>
      <point x="42" y="302"/>
      <point x="42" y="388" type="curve" smooth="yes"/>
      <point x="42" y="461"/>
      <point x="94" y="528"/>
    </contour>
  </outline>
</glyph>
<glyph name="t" format="2">
  <advance width="450"/>
  <unicode hex="0074"/>
  <outline>
    <contour>
      <point x="165" y="649" type="line"/>
      <point x="243" y="687" type="line"/>
      <point x="243" y="520" type="line"/>
      <point x="391" y="520" type="line"/>
      <point x="391" y="456" type="line"/>
      <point x="243" y="456" type="line"/>
      <point x="243" y="128" type="line" smooth="yes"/>
      <point x="243" y="86"/>
      <point x="253" y="55"/>
      <point x="302" y="55" type="curve"/>
      <point x="345" y="55"/>
      <point x="366" y="66"/>
      <point x="403" y="81" type="curve"/>
      <point x="421" y="24" type="line"/>
      <point x="389" y="8"/>
      <point x="353" y="-8"/>
      <point x="292" y="-8" type="curve" smooth="yes"/>
      <point x="193" y="-8"/>
      <point x="165" y="50"/>
      <point x="165" y="128" type="curve" smooth="yes"/>
      <point x="165" y="456" type="line"/>
      <point x="33" y="456" type="line"/>
      <point x="33" y="520" type="line"/>
      <point x="165" y="520" type="line"/>
    </contour>
  </outline>
</glyph>
<glyph name="u" format="2">
  <advance width="450"/>
  <unicode hex="0075"/>
  <anchor x="300" y="687" name="AccentCenter"/>
  <outline>
    <contour>
      <point x="48" y="520" type="line"/>
      <point x="128" y="520" type="line"/>
      <point x="128" y="137" type="line" smooth="yes"/>
      <point x="128" y="85"/>
      <point x="146" y="56"/>
      <point x="196" y="56" type="curve" smooth="yes"/>
      <point x="254" y="56"/>
      <point x="289" y="93"/>
      <point x="310" y="141" type="curve"/>
      <point x="310" y="520" type="line"/>
      <point x="390" y="520" type="line"/>
      <point x="390" y="0" type="line"/>
      <point x="326" y="0" type="line"/>
      <point x="310" y="70" type="line"/>
      <point x="289" y="26"/>
      <point x="248" y="-8"/>
      <point x="184" y="-8" type="curve" smooth="yes"/>
      <point x="85" y="-8"/>
      <point x="48" y="50"/>
      <point x="48" y="135" type="curve" smooth="yes"/>
    </contour>
  </outline>
</glyph>
<glyph name="v" format="2">
  <advance width="450"/>
  <unicode hex="0076"/>
  <outline>
    <contour>
      <point x="20" y="520" type="line"/>
      <point x="106" y="520" type="line"/>
      <point x="226" y="77" type="line"/>
      <point x="348" y="520" type="line"/>
      <point x="434" y="520" type="line"/>
      <point x="271" y="0" type="line"/>
      <point x="181" y="0" type="line"/>
    </contour>
  </outline>
</glyph>
<glyph name="w" format="2">
  <advance width="450"/>
  <unicode hex="0077"/>
  <outline>
    <contour>
      <point x="8" y="520" type="line"/>
      <point x="86" y="520" type="line"/>
      <point x="117" y="143" type="line"/>
      <point x="196" y="462" type="line"/>
      <point x="256" y="462" type="line"/>
      <point x="329" y="147" type="line"/>
      <point x="362" y="520" type="line"/>
      <point x="442" y="520" type="line"/>
      <point x="364" y="0" type="line"/>
      <point x="297" y="0" type="line"/>
      <point x="226" y="324" type="line"/>
      <point x="149" y="0" type="line"/>
      <point x="84" y="0" type="line"/>
    </contour>
  </outline>
</glyph>
<glyph name="x" format="2">
  <advance width="450"/>
  <unicode hex="0078"/>
  <outline>
    <contour>
      <point x="26" y="520" type="line"/>
      <point x="111" y="520" type="line"/>
      <point x="227" y="311" type="line"/>
      <point x="340" y="520" type="line"/>
      <point x="424" y="520" type="line"/>
      <point x="256" y="260" type="line"/>
      <point x="424" y="0" type="line"/>
      <point x="340" y="0" type="line"/>
      <point x="227" y="211" type="line"/>
      <point x="111" y="0" type="line"/>
      <point x="26" y="0" type="line"/>
      <point x="181" y="260" type="line"/>
    </contour>
  </outline>
</glyph>
<glyph name="y" format="2">
  <advance width="450"/>
  <unicode hex="0079"/>
  <anchor x="226" y="687" name="AccentCenter"/>
  <outline>
    <contour>
      <point x="16" y="520" type="line"/>
      <point x="109" y="520" type="line"/>
      <point x="212" y="168" type="line"/>
      <point x="225" y="101" type="line"/>
      <point x="239" y="168" type="line"/>
      <point x="347" y="520" type="line"/>
      <point x="434" y="520" type="line"/>
      <point x="180" y="-192" type="line"/>
      <point x="96" y="-192" type="line"/>
      <point x="189" y="36" type="line"/>
    </contour>
  </outline>
</glyph>
<glyph name="z" format="2">
  <advance width="450"/>
  <unicode hex="007A"/>
  <outline>
    <contour>
      <point x="46" y="520" type="line"/>
      <point x="399" y="520" type="line"/>
      <point x="399" y="456" type="line"/>
      <point x="132" y="64" type="line"/>
      <point x="404" y="64" type="line"/>
      <point x="404" y="0" type="line"/>
      <point x="44" y="0" type="line"/>
      <point x="44" y="64" type="line"/>
      <point x="314" y="456" type="line"/>
      <point x="46" y="456" type="line"/>
    </contour>
  </outline>
</glyph>
<glyph name="braceleft" format="2">
  <advance width="450"/>
  <unicode hex="007B"/>
  <outline>
    <contour>
      <point x="265" y="800" type="curve"/>
      <point x="392" y="800" type="line"/>
      <point x="392" y="734" type="line"/>
      <point x="272" y="734" type="line"/>
      <point x="250" y="734"/>
      <point x="232" y="715"/>
      <point x="232" y="695" type="curve"/>
      <point x="280" y="437" type="line"/>
      <point x="280" y="412"/>
      <point x="270" y="382"/>
      <point x="238" y="363" type="curve"/>
      <point x="270" y="344"/>
      <point x="280" y="314"/>
      <point x="280" y="289" type="curve"/>
      <point x="232" y="31" type="line"/>
      <point x="232" y="11"/>
      <point x="250" y="-8"/>
      <point x="272" y="-8" type="curve"/>
      <point x="392" y="-8" type="line"/>
      <point x="392" y="-74" type="line"/>
      <point x="293" y="-74" type="line"/>
      <point x="232" y="-74"/>
      <point x="152" y="-25"/>
      <point x="152" y="29" type="curve"/>
      <point x="200" y="296" type="line"/>
      <point x="200" y="314"/>
      <point x="184" y="330"/>
      <point x="167" y="330" type="curve"/>
      <point x="56" y="330" type="line"/>
      <point x="56" y="396" type="line"/>
      <point x="167" y="396" type="line"/>
      <point x="184" y="396"/>
      <point x="200" y="412"/>
      <point x="200" y="430" type="curve"/>
      <point x="152" y="697" type="line"/>
      <point x="152" y="751"/>
      <point x="204" y="800"/>
    </contour>
  </outline>
</glyph>
<glyph name="braceright" format="2">
  <advance width="450"/>
  <unicode hex="007D"/>
  <outline>
    <contour>
      <point x="185" y="800" type="line"/>
      <point x="246" y="800"/>
      <point x="298" y="751"/>
      <point x="298" y="697" type="curve"/>
      <point x="250" y="430" type="line"/>
      <point x="250" y="412"/>
      <point x="266" y="396"/>
      <point x="283" y="396" type="curve"/>
      <point x="394" y="396" type="line"/>
      <point x="394" y="330" type="line"/>
      <point x="283" y="330" type="line"/>
      <point x="266" y="330"/>
      <point x="250" y="314"/>
      <point x="250" y="296" type="curve"/>
      <point x="298" y="29" type="line"/>
      <point x="298" y="-25"/>
      <point x="218" y="-74"/>
      <point x="157" y="-74" type="curve"/>
      <point x="58" y="-74" type="line"/>
      <point x="58" y="-8" type="line"/>
      <point x="178" y="-8" type="line"/>
      <point x="200" y="-8"/>
      <point x="218" y="11"/>
      <point x="218" y="31" type="curve"/>
      <point x="170" y="289" type="line"/>
      <point x="170" y="314"/>
      <point x="180" y="344"/>
      <point x="212" y="363" type="curve"/>
      <point x="180" y="382"/>
      <point x="170" y="412"/>
      <point x="170" y="437" type="curve"/>
      <point x="218" y="695" type="line"/>
      <point x="218" y="715"/>
      <point x="200" y="734"/>
      <point x="178" y="734" type="curve"/>
      <point x="58" y="734" type="line"/>
      <point x="58" y="800" type="line"/>
    </contour>
  </outline>
</glyph>
<glyph name="dotlessi" format="2">
  <advance width="450"/>
  <unicode hex="0131"/>
  <anchor x="220" y="687" name="AccentCenter"/>
  <outline>
    <contour>
      <point x="50" y="520" type="line"/>
      <point x="256" y="520" type="line"/>
      <point x="256" y="64" type="line"/>
      <point x="397" y="64" type="line"/>
      <point x="397" y="0" type="line"/>
      <point x="176" y="0" type="line"/>
      <point x="176" y="456" type="line"/>
      <point x="50" y="456" type="line"/>
    </contour>
  </outline>
</glyph>
<glyph name="a.ss01" format="2">
  <advance width="450"/>
  <outline>
    <contour>
      <point x="210" y="528" type="curve" smooth="yes"/>
      <point x="345" y="528"/>
      <point x="397" y="452"/>
      <point x="397" y="321" type="curve" smooth="yes"/>
      <point x="397" y="0" type="line"/>
      <point x="397" y="0"/>
      <point x="317" y="0"/>
      <point x="317" y="0" type="curve" smooth="yes"/>
      <point x="317" y="0"/>
      <point x="317" y="79"/>
      <point x="317" y="79" type="curve"/>
      <point x="307" y="51"/>
      <point x="297" y="-8"/>
      <point x="194" y="-8" type="curve" smooth="yes"/>
      <point x="103" y="-8"/>
      <point x="41" y="46"/>
      <point x="41" y="138" type="curve" smooth="yes"/>
      <point x="41" y="234"/>
      <point x="85" y="303"/>
      <point x="211" y="303" type="curve" smooth="yes"/>
      <point x="317" y="303" type="line"/>
      <point x="317" y="335" type="line" smooth="yes"/>
      <point x="317" y="414"/>
      <point x="295" y="466"/>
      <point x="204" y="466" type="curve" smooth="yes"/>
      <point x="167" y="466"/>
      <point x="136" y="462"/>
      <point x="91" y="442" type="curve"/>
      <point x="72" y="498" type="line"/>
      <point x="126" y="521"/>
      <point x="158" y="528"/>
    </contour>
    <contour>
      <point x="317" y="241" type="line"/>
      <point x="208" y="241" type="line" smooth="yes"/>
      <point x="131" y="241"/>
      <point x="121" y="204"/>
      <point x="121" y="142" type="curve" smooth="yes"/>
      <point x="121" y="78"/>
      <point x="150" y="56"/>
      <point x="205" y="56" type="curve" smooth="yes"/>
      <point x="283" y="56"/>
      <point x="299" y="107"/>
      <point x="317" y="150" type="curve"/>
    </contour>
  </outline>
</glyph>
<glyph name="r.ss01" format="2">
  <advance width="450"/>
  <outline>
    <contour>
      <point x="17" y="520" type="line"/>
      <point x="183" y="520" type="line"/>
      <point x="183" y="390" type="line"/>
      <point x="198" y="450"/>
      <point x="237" y="528"/>
      <point x="341" y="528" type="curve" smooth="yes"/>
      <point x="372" y="528"/>
      <point x="398" y="525"/>
      <point x="427" y="515" type="curve"/>
      <point x="408" y="452" type="line"/>
      <point x="383" y="459"/>
      <point x="362" y="464"/>
      <point x="339" y="464" type="curve" smooth="yes"/>
      <point x="245" y="464"/>
      <point x="204" y="366"/>
      <point x="190" y="312" type="curve"/>
      <point x="190" y="0" type="line"/>
      <point x="110" y="0" type="line"/>
      <point x="110" y="456" type="line"/>
      <point x="22" y="456" type="line"/>
    </contour>
  </outline>
</glyph>
